<svg height="200" viewBox="0 0 200 200" width="200" xmlns="http://www.w3.org/2000/svg"><g fill-opacity="0.5"><path d="M155.813 112.706c-.422-1.85-1.445-3.597-3.06-5.008-1.625-1.4-3.608-2.246-5.664-2.557l-33.055-6.395 9.563 6.347-15.097 47.324-8.5-35.152-8.505 35.153-15.09-47.324 9.56-6.347-33.055 6.396c-2.056.31-4.038 1.155-5.664 2.557-1.616 1.41-2.64 3.157-3.06 5.007l-9.8 43.046 18.487 6.415c6.137 6.38 23.317 11.073 43.922 11.52H103.203c20.605-.446 37.783-5.14 43.922-11.52l18.488-6.415-9.8-43.047z"/><path d="M100 103.55l-7.62 2.73 7.62 10.984 7.62-10.985zM128.29 61.162c0-19.537-8.04-34.848-28.29-34.848S71.713 41.626 71.713 61.162c-2.118 1.105-3.51 3.698-1.43 9.255 1.05 2.79 2.9 5.128 4.468 6.352 5.772 14.367 17.12 25.46 25.25 25.46 8.13 0 19.48-11.093 25.247-25.46 1.57-1.225 3.417-3.564 4.47-6.353 2.08-5.558.69-8.15-1.428-9.255zM31.956 145.935c-9.436-1.115-16.874-3.665-19.97-6.88L0 134.894l6.354-27.91c.273-1.2.938-2.333 1.985-3.246a7.26 7.26 0 0 1 3.67-1.66l23.216-5.316c-3.493-2.987-6.884-7.67-9.053-13.08-1.018-.792-2.217-2.308-2.898-4.118-1.35-3.6-.448-5.282.926-6 0-12.666 5.21-22.593 18.34-22.593h.003c13.128 0 18.34 9.927 18.34 22.593 1.373.718 2.275 2.4.927 6-.682 1.81-1.88 3.326-2.9 4.118-2.168 5.408-5.56 10.092-9.052 13.08l10.265 2.352-7.99 1.545c-2.95.46-5.668 1.706-7.876 3.613-2.295 2.005-3.855 4.57-4.506 7.423l-7.794 34.24zm161.69-38.95c-.275-1.2-.938-2.334-1.985-3.247-1.05-.908-2.336-1.458-3.67-1.658l-23.215-5.317c3.493-2.987 6.883-7.67 9.055-13.08 1.02-.792 2.215-2.308 2.896-4.118 1.35-3.6.448-5.282-.925-6 0-12.666-5.213-22.593-18.342-22.593-13.13 0-18.34 9.927-18.34 22.593-1.373.718-2.276 2.4-.926 6 .68 1.81 1.878 3.326 2.896 4.118 2.17 5.408 5.562 10.092 9.055 13.08l-10.267 2.352 7.99 1.545c2.95.46 5.668 1.705 7.857 3.594 2.314 2.022 3.87 4.59 4.522 7.437l7.796 34.245c9.437-1.115 16.875-3.665 19.97-6.88l11.987-4.16-6.35-27.91z"/></g></svg>